<mxfile host="app.diagrams.net" modified="2021-01-17T10:44:49.948Z" agent="5.0 (Macintosh; Intel Mac OS X 10_15_6) AppleWebKit/605.1.15 (KHTML, like Gecko) Version/14.0.2 Safari/605.1.15" etag="j5fSbrd35mI1wT6U12Eg" version="14.2.3" type="github">
  <diagram id="mbD5AaTDO_T1qyt1Valj" name="第 1 页">
    <mxGraphModel dx="1426" dy="825" grid="1" gridSize="10" guides="1" tooltips="1" connect="1" arrows="1" fold="1" page="1" pageScale="1" pageWidth="827" pageHeight="1169" math="0" shadow="0">
      <root>
        <mxCell id="0" />
        <mxCell id="1" parent="0" />
        <mxCell id="Nn_mb9ekMg6NWitFb57V-1" value="y = 2&lt;sup style=&quot;font-size: 16px;&quot;&gt;x&lt;/sup&gt;" style="rounded=1;whiteSpace=wrap;html=1;fontFamily=Courier New;fontSize=16;fillColor=#fff2cc;strokeColor=none;fontStyle=1" vertex="1" parent="1">
          <mxGeometry x="280" y="200" width="140" height="50" as="geometry" />
        </mxCell>
        <mxCell id="Nn_mb9ekMg6NWitFb57V-2" value="x = log&lt;sub style=&quot;font-size: 16px&quot;&gt;2&lt;/sub&gt;y" style="rounded=1;whiteSpace=wrap;html=1;fontFamily=Courier New;fontSize=16;fillColor=#dae8fc;strokeColor=none;fontStyle=1" vertex="1" parent="1">
          <mxGeometry x="280" y="280" width="140" height="50" as="geometry" />
        </mxCell>
        <mxCell id="Nn_mb9ekMg6NWitFb57V-3" value="&lt;span style=&quot;color: rgb(51 , 51 , 51) ; font-family: &amp;#34;pingfang sc&amp;#34; , &amp;#34;lantinghei sc&amp;#34; , &amp;#34;microsoft yahei&amp;#34; , &amp;#34;hiragino sans gb&amp;#34; , &amp;#34;microsoft sans serif&amp;#34; , &amp;#34;wenquanyi micro hei&amp;#34; , &amp;#34;helvetica&amp;#34; , sans-serif ; background-color: rgb(255 , 255 , 255)&quot;&gt;指数运算:&lt;/span&gt;" style="text;html=1;align=center;verticalAlign=middle;resizable=0;points=[];autosize=1;fontSize=16;fontFamily=Courier New;" vertex="1" parent="1">
          <mxGeometry x="170" y="210" width="80" height="30" as="geometry" />
        </mxCell>
        <mxCell id="Nn_mb9ekMg6NWitFb57V-4" value="&lt;span style=&quot;color: rgb(51 , 51 , 51) ; font-family: &amp;#34;pingfang sc&amp;#34; , &amp;#34;lantinghei sc&amp;#34; , &amp;#34;microsoft yahei&amp;#34; , &amp;#34;hiragino sans gb&amp;#34; , &amp;#34;microsoft sans serif&amp;#34; , &amp;#34;wenquanyi micro hei&amp;#34; , &amp;#34;helvetica&amp;#34; , sans-serif ; background-color: rgb(255 , 255 , 255)&quot;&gt;对数运算:&lt;br&gt;（指数的逆运算）&lt;br&gt;&lt;/span&gt;" style="text;html=1;align=center;verticalAlign=middle;resizable=0;points=[];autosize=1;fontSize=16;fontFamily=Courier New;" vertex="1" parent="1">
          <mxGeometry x="140" y="280" width="140" height="50" as="geometry" />
        </mxCell>
        <mxCell id="Nn_mb9ekMg6NWitFb57V-6" value="其中 &lt;font color=&quot;#ff0000&quot;&gt;x&lt;/font&gt; 参数为&lt;font color=&quot;#ff0000&quot;&gt;对数&lt;/font&gt;，&lt;font color=&quot;#0000ff&quot;&gt;y&lt;/font&gt; 参数是&lt;font color=&quot;#0000ff&quot;&gt;真数&lt;/font&gt;" style="text;html=1;align=center;verticalAlign=middle;resizable=0;points=[];autosize=1;fontSize=16;fontFamily=Courier New;fillColor=#ffff88;strokeColor=#36393d;fontStyle=0" vertex="1" parent="1">
          <mxGeometry x="160" y="350" width="270" height="20" as="geometry" />
        </mxCell>
      </root>
    </mxGraphModel>
  </diagram>
</mxfile>
